<svg xmlns="http://www.w3.org/2000/svg" width="100" height="98" viewBox="0 0 100 98">
    <defs>
        <linearGradient id="a" x1="-8.005%" x2="107.961%" y1="37.767%" y2="62.245%">
            <stop offset="0%" stop-color="#E32400"/>
            <stop offset="23%" stop-color="#EC4000"/>
            <stop offset="55%" stop-color="#F65F00"/>
            <stop offset="82%" stop-color="#FD7200"/>
            <stop offset="100%" stop-color="#FF7900"/>
        </linearGradient>
        <linearGradient id="b" x1="18.403%" x2="88.733%" y1="69.39%" y2="4.82%">
            <stop offset="0%" stop-color="#E32400"/>
            <stop offset="23%" stop-color="#EC4000"/>
            <stop offset="55%" stop-color="#F65F00"/>
            <stop offset="82%" stop-color="#FD7200"/>
            <stop offset="100%" stop-color="#FF7900"/>
        </linearGradient>
        <linearGradient id="c" x1="-13.885%" x2="430.771%" y1="72.472%" y2="-141.982%">
            <stop offset="0%" stop-color="#E32400"/>
            <stop offset="23%" stop-color="#EC4000"/>
            <stop offset="55%" stop-color="#F65F00"/>
            <stop offset="82%" stop-color="#FD7200"/>
            <stop offset="100%" stop-color="#FF7900"/>
        </linearGradient>
        <linearGradient id="d" x1="-176.972%" x2="585.935%" y1="128.14%" y2="-163.31%">
            <stop offset="0%" stop-color="#E32400"/>
            <stop offset="23%" stop-color="#EC4000"/>
            <stop offset="55%" stop-color="#F65F00"/>
            <stop offset="82%" stop-color="#FD7200"/>
            <stop offset="100%" stop-color="#FF7900"/>
        </linearGradient>
        <linearGradient id="e" x1="-154.059%" x2="272.897%" y1="172.394%" y2="-86.54%">
            <stop offset="0%" stop-color="#E32400"/>
            <stop offset="23%" stop-color="#EC4000"/>
            <stop offset="55%" stop-color="#F65F00"/>
            <stop offset="82%" stop-color="#FD7200"/>
            <stop offset="100%" stop-color="#FF7900"/>
        </linearGradient>
        <linearGradient id="f" x1="-281.452%" x2="190.857%" y1="223.67%" y2="-22.029%">
            <stop offset="0%" stop-color="#E32400"/>
            <stop offset="23%" stop-color="#EC4000"/>
            <stop offset="55%" stop-color="#F65F00"/>
            <stop offset="82%" stop-color="#FD7200"/>
            <stop offset="100%" stop-color="#FF7900"/>
        </linearGradient>
        <linearGradient id="g" x1="-542.576%" x2="132.204%" y1="256.341%" y2="29.604%">
            <stop offset="0%" stop-color="#E32400"/>
            <stop offset="23%" stop-color="#EC4000"/>
            <stop offset="55%" stop-color="#F65F00"/>
            <stop offset="82%" stop-color="#FD7200"/>
            <stop offset="100%" stop-color="#FF7900"/>
        </linearGradient>
    </defs>
    <g fill="none" fill-rule="nonzero">
        <path fill="#FFF" d="M29.35 68.262v10.692l-5.092-.017V68.51l-.04-1.467c0-2.097-1.277-3.681-3.216-3.837a3.499 3.499 0 0 0-1.258.126 3.226 3.226 0 0 0-1.715 1.046 2.824 2.824 0 0 0-.392.613 4.803 4.803 0 0 0-.4 1.71c-.013.164-.021.33-.025.495v11.74h-5.074v-11.05-.684c0-.165-.012-.329-.027-.492a4.778 4.778 0 0 0-.398-1.713 2.908 2.908 0 0 0-.392-.619 3.235 3.235 0 0 0-1.707-1.037 3.455 3.455 0 0 0-1.268-.126c-1.941.153-3.214 1.736-3.216 3.836l-.04 1.468V78.94L0 78.956V68.264c0-.51 0-1.02.036-1.534 0-.114.012-.223.019-.334.184-2.8 1.295-5.18 3.748-6.648 2.124-1.268 4.897-1.664 7.279-.926 1.52.472 2.515 1.383 3.547 2.551l.057.067.054-.067c1.034-1.168 2.027-2.08 3.55-2.551 2.37-.738 5.152-.342 7.278.926 2.449 1.468 3.564 3.85 3.75 6.648 0 .111.013.222.017.334.015.513.015 1.027.015 1.532zM95.507 64.168v8.27c0 2.145 1.552 2.183 4.493 2.027v4.642c-7.034.797-9.62-1.224-9.62-6.675v-8.264h-3.455v-4.925h3.457v-2.43l5.125-5.14v7.562H100v4.924l-4.493.009zM46.205 59.222l-4.402 13.31-5.145-13.31h-5.576l8.121 19.17c-.95 2.696-2.448 3.839-5.19 3.8v4.751c5.073.275 8.385-2.218 10.455-7.922l7.207-19.8-5.47.001zM78.889 59.222h5.107v19.803h-5.107zM72.421 61.715c-1.861-2.019-4.157-3.05-6.821-3.05-2.77 0-4.914.95-6.416 2.888v-10.26h-.14l-4.969 4.97v22.773h5.11v-2.342c1.507 1.937 3.645 2.887 6.412 2.887a8.975 8.975 0 0 0 6.824-3.007c1.902-2.02 2.852-4.515 2.852-7.446 0-2.93-.95-5.396-2.852-7.413zm-3.836 11.45c-1.033 1.033-2.34 1.548-3.92 1.546-1.575 0-2.89-.512-3.92-1.545-1.032-1.07-1.547-2.415-1.546-4.038 0-1.627.514-2.975 1.545-4.004 1.032-1.067 2.34-1.575 3.92-1.575 1.581 0 2.887.514 3.92 1.575 1.07 1.033 1.575 2.377 1.575 4.004 0 1.627-.505 2.962-1.574 4.038z"/>
        <path fill="url(#a)" d="M78.763 50.38h5.317v5.323h-5.317z" transform="rotate(-44.93 81.421 53.041)"/>
        <path fill="#FFF" d="M74.338 24.382l-9.12 9.127a21.463 21.463 0 0 0-30.356-.035l-.036.035h-.025l-9.126-9.127L50.01.062l24.328 24.32z"/>
        <path fill="url(#b)" d="M62.526 36.2L50.02 48.705l-12.52-12.511a17.526 17.526 0 0 1 12.507-5.193c.838 0 1.674.059 2.503.174 3.8.53 7.32 2.296 10.017 5.023z"/>
        <path fill="url(#c)" d="M64.738 85.39H60.99v11.367h-3.338V85.39h-3.74v-3.21h10.826z"/>
        <path fill="url(#d)" d="M71.086 86.14v3.54c-1.291-.21-3.122.312-3.122 2.372v4.705h-3.123V86.348h3.123v1.853c.415-1.396 1.81-2.06 3.122-2.06z"/>
        <path fill="url(#e)" d="M82.39 86.348v10.409h-3.124v-.98c-.562.772-1.601 1.271-2.977 1.271-2.096 0-3.893-1.499-3.893-4.308v-6.392h3.124v5.933c0 1.291.811 1.887 1.811 1.887 1.145 0 1.935-.667 1.935-2.145v-5.675h3.124z"/>
        <path fill="url(#f)" d="M92.662 93.635c0 2.394-2.081 3.413-4.329 3.413-2.084 0-3.664-.79-4.476-2.478l2.705-1.539c.272.79.855 1.229 1.771 1.229.749 0 1.124-.23 1.124-.646 0-1.144-5.122-.543-5.122-4.142 0-2.27 1.914-3.415 4.08-3.415 1.688 0 3.187.748 4.06 2.226l-2.674 1.444c-.294-.54-.709-.916-1.396-.916-.541 0-.875.21-.875.583 0 1.172 5.132.388 5.132 4.241z"/>
        <path fill="url(#g)" d="M97.855 89.346v3.685c0 .896.772.977 2.145.896v2.83c-4.08.42-5.266-.812-5.266-3.726v-3.685h-1.667v-2.998h1.667v-1.977l3.121-.933v2.914H100v2.998l-2.145-.004z"/>
    </g>
</svg>
