<svg xmlns="http://www.w3.org/2000/svg" width="200" height="90" viewBox="0 0 200 90">
    <g fill="#FFF" fill-rule="nonzero">
        <path d="M127.66 70.162V81.1h-5.215V70.406l-.039-1.493c0-2.147-1.303-3.768-3.292-3.927a3.663 3.663 0 0 0-1.296.128 3.323 3.323 0 0 0-1.748 1.064 2.851 2.851 0 0 0-.387.627 4.878 4.878 0 0 0-.41 1.748c0 .17-.023.337-.027.507v11.992h-5.219V69.745v-.7c0-.167 0-.337-.027-.503a4.975 4.975 0 0 0-.406-1.753 3.017 3.017 0 0 0-.387-.627 3.327 3.327 0 0 0-1.745-1.063 3.598 3.598 0 0 0-1.3-.128c-1.984.159-3.288 1.78-3.292 3.926l-.038 1.494v10.665l-5.215.027v-10.92c0-.523 0-1.049.035-1.571 0-.116 0-.228.02-.344.193-2.863 1.326-5.308 3.837-6.801a9.466 9.466 0 0 1 7.45-.948c1.548.484 2.573 1.416 3.629 2.611l.058.066.054-.066c1.06-1.195 2.078-2.127 3.633-2.611a9.474 9.474 0 0 1 7.458.948c2.503 1.497 3.644 3.938 3.838 6.8v.345c0 .526.03 1.04.03 1.57zM195.358 65.973v8.46c0 2.198 1.586 2.236 4.596 2.074v4.754c-7.196.813-9.846-1.253-9.846-6.832v-8.456h-3.535v-5.03h3.54v-2.49l5.245-5.258v7.737h4.596v5.03l-4.596.01zM144.89 60.91l-4.5 13.624-5.264-13.625h-5.714l8.306 19.617c-.975 2.758-2.507 3.93-5.312 3.892v4.862c5.192.279 8.592-2.274 10.697-8.123l7.38-20.248h-5.593zM178.337 60.909h5.226v20.263h-5.226zM171.718 63.462a9.184 9.184 0 0 0-6.983-3.114c-2.832 0-5.029.971-6.576 2.956V52.797h-.147l-5.084 5.083v23.304h5.227v-2.395c1.547 1.985 3.729 2.956 6.576 2.956a9.191 9.191 0 0 0 6.983-3.095 11.362 11.362 0 0 0 0-15.203l.004.015zm-3.927 11.71a5.876 5.876 0 0 1-8.023 0 5.71 5.71 0 0 1-1.582-4.131 5.547 5.547 0 0 1 1.582-4.097 5.803 5.803 0 0 1 8.023 0 5.416 5.416 0 0 1 1.61 4.097 5.57 5.57 0 0 1-1.61 4.131zM177.075 54.577l3.85-3.841 3.847 3.856-3.85 3.841zM173.694 25.257l-9.346 9.339c-8.57-8.589-22.479-8.604-31.068-.035l-.034.035-9.366-9.339L148.781.364l24.913 24.893z"/>
        <path d="M161.59 37.35l-12.797 12.8-12.812-12.804a17.926 17.926 0 0 1 12.8-5.315c.856 0 1.71.059 2.557.178a17.9 17.9 0 0 1 10.252 5.141zM1.868 77.215v3.95H0v-10.65h4.093a4.12 4.12 0 0 1 2.832.928 3.13 3.13 0 0 1 1.052 2.445c.05.927-.33 1.826-1.03 2.437-.685.583-1.645.874-2.877.874l-2.202.016zm0-1.494h2.225a2.182 2.182 0 0 0 1.505-.464c.362-.349.552-.84.518-1.342a1.826 1.826 0 0 0-.526-1.377 2.015 2.015 0 0 0-1.447-.53H1.868v3.713zM18.093 76.116c.02.944-.165 1.88-.542 2.747a4.108 4.108 0 0 1-1.547 1.814 4.526 4.526 0 0 1-4.623 0 4.135 4.135 0 0 1-1.567-1.803 6.325 6.325 0 0 1-.557-2.708v-.6a6.503 6.503 0 0 1 .55-2.75 4.159 4.159 0 0 1 1.547-1.822 4.538 4.538 0 0 1 4.615 0 4.085 4.085 0 0 1 1.547 1.799c.38.86.57 1.791.558 2.731l.019.592zm-1.845-.557c0-1.16-.22-2.081-.67-2.708a2.36 2.36 0 0 0-3.771 0 4.538 4.538 0 0 0-.693 2.658v.615a4.642 4.642 0 0 0 .685 2.708 2.197 2.197 0 0 0 1.895.955 2.17 2.17 0 0 0 1.892-.936c.441-.621.662-1.533.662-2.735v-.557zM28.286 78.53l1.64-8.015h1.834l-2.456 10.65h-1.768l-2.027-7.776-2.07 7.775h-1.776l-2.456-10.65h1.837l1.648 8.016 2.031-8h1.548zM39.338 76.41h-4.37v3.28h5.11v1.478h-6.964V70.515h6.913v1.493h-5.06v2.94h4.371zM45.497 77.068h-2.062v4.096h-1.849v-10.65h3.745c1.226 0 2.178.275 2.843.828.69.597 1.06 1.481 1.002 2.391a2.99 2.99 0 0 1-.514 1.791 3.3 3.3 0 0 1-1.44 1.11l2.395 4.434v.096h-1.985l-2.135-4.096zm-2.062-1.494h1.903a2.104 2.104 0 0 0 1.463-.471c.358-.33.55-.802.526-1.289a1.756 1.756 0 0 0-.488-1.327 2.07 2.07 0 0 0-1.45-.48h-1.954v3.567zM57.157 76.41H52.78v3.28h5.115v1.478h-6.964V70.515h6.913v1.493h-5.064v2.94h4.376zM59.404 81.164v-10.65h3.145c.875-.016 1.74.2 2.503.627a4.294 4.294 0 0 1 1.695 1.787c.41.821.616 1.729.6 2.646v.534c.019.925-.188 1.84-.604 2.666a4.255 4.255 0 0 1-1.718 1.768 5.184 5.184 0 0 1-2.557.622h-3.064zm1.85-9.156v7.683h1.206a2.785 2.785 0 0 0 2.236-.913c.519-.604.774-1.478.774-2.616v-.591c0-1.16-.251-2.04-.754-2.646a2.665 2.665 0 0 0-2.186-.913l-1.277-.004zM72.92 81.164v-10.65h3.649c1.207 0 2.123.242 2.75.724.648.522 1 1.328.944 2.159.008.467-.127.926-.387 1.315a2.56 2.56 0 0 1-1.16.909 2.344 2.344 0 0 1 1.334.878c.32.451.487.994.472 1.547a2.843 2.843 0 0 1-.96 2.322c-.641.533-1.547.804-2.753.804l-3.888-.008zm1.85-6.166h1.826c.48.03.957-.107 1.35-.387.33-.272.51-.684.487-1.11a1.358 1.358 0 0 0-.452-1.16 2.279 2.279 0 0 0-1.4-.349h-1.8l-.011 3.006zm0 1.362v3.33h2.054c.492.03.978-.124 1.362-.433.336-.305.517-.745.491-1.199 0-1.106-.566-1.671-1.698-1.694l-2.21-.004zM85.443 75.559l2.449-5.029h2.05l-3.57 6.727v3.923h-1.857v-3.938l-3.579-6.727h2.054z"/>
    </g>
</svg>
